<svg width="520" height="180" viewBox="0 0 520 180" fill="none" xmlns="http://www.w3.org/2000/svg">
  <!-- Dark blue outline/shadow -->
  <g filter="drop-shadow(0 4px 8px rgba(0,0,0,0.3))">
    <!-- R - Orange/Red -->
    <path d="M 20 140 L 20 40 L 70 40 Q 100 40 100 70 Q 100 90 85 95 L 105 140 L 75 140 L 60 100 L 45 100 L 45 140 Z M 45 80 L 70 80 Q 75 80 75 70 Q 75 60 70 60 L 45 60 Z" fill="#FF5722" stroke="#1A237E" stroke-width="6"/>
    
    <!-- e - Yellow -->
    <path d="M 130 140 Q 110 140 110 115 L 110 75 Q 110 50 130 50 L 170 50 Q 190 50 190 75 L 190 85 L 135 85 L 135 115 Q 135 120 140 120 L 180 120 L 180 140 Z M 135 70 L 165 70 L 165 60 L 140 60 Q 135 60 135 65 Z" fill="#FFD600" stroke="#1A237E" stroke-width="6"/>
    
    <!-- n - Yellow -->
    <path d="M 210 140 L 210 75 Q 210 50 230 50 L 270 50 Q 290 50 290 75 L 290 140 L 265 140 L 265 75 Q 265 70 260 70 L 240 70 Q 235 70 235 75 L 235 140 Z" fill="#FFD600" stroke="#1A237E" stroke-width="6"/>
    
    <!-- b - Green -->
    <path d="M 310 140 L 310 30 L 335 30 L 335 55 Q 340 50 350 50 L 380 50 Q 400 50 400 75 L 400 115 Q 400 140 380 140 Z M 335 115 Q 335 120 340 120 L 370 120 Q 375 120 375 115 L 375 75 Q 375 70 370 70 L 340 70 Q 335 70 335 75 Z" fill="#4CAF50" stroke="#1A237E" stroke-width="6"/>
    
    <!-- o - Blue -->
    <path d="M 420 140 Q 400 140 400 115 L 400 75 Q 400 50 420 50 L 470 50 Q 490 50 490 75 L 490 115 Q 490 140 470 140 Z M 425 70 Q 420 70 420 75 L 420 115 Q 420 120 425 120 L 465 120 Q 470 120 470 115 L 470 75 Q 470 70 465 70 Z" fill="#2196F3" stroke="#1A237E" stroke-width="6"/>
  </g>
</svg>




